Coordinates
version=1
nRows=54
nColumns=12
inDegrees=yes

Units are S.I. units (second, meters, Newtons, ...)
Angles are in degrees

endheader
time	SC_y	SC_z	SC_x	AC_y	AC_z	AC_x	GH_y	GH_z	GH_yy	EL_x	PS_y
       0.0              -17.64          14.55          52.99          40.01          1.623          3.561           21.5          60.21          161.1          17.48          87.98
   0.01076              -17.64          14.55          52.99          40.01          1.621           3.56           21.5           60.2          161.1          17.49          87.99
   0.02153              -17.65          14.55           53.0          40.01          1.618           3.56          21.51          60.19          161.1          17.49          87.99
   0.03229              -17.65          14.55           53.0          40.01          1.615          3.559          21.52          60.18          161.1           17.5          87.99
   0.04305              -17.65          14.56          53.01          40.01          1.611          3.559          21.52          60.17          161.0          17.51           88.0
   0.05381              -17.65          14.56          53.01          40.01          1.608          3.558          21.53          60.16          161.0          17.52           88.0
   0.06458              -17.66          14.56          53.02          40.01          1.604          3.558          21.53          60.14          161.0          17.52          88.01
   0.07534              -17.66          14.57          53.03           40.0            1.6          3.557          21.54          60.13          161.0          17.53          88.02
    0.0861              -17.66          14.57          53.03           40.0          1.595          3.556          21.55          60.11          161.0          17.54          88.02
   0.09686              -17.66          14.57          53.04           40.0          1.591          3.555          21.56           60.1          161.0          17.55          88.03
    0.1076              -17.67          14.58          53.05           40.0          1.586          3.555          21.57          60.08          161.0          17.57          88.04
    0.1184              -17.67          14.58          53.06           40.0           1.58          3.554          21.58          60.06          160.9          17.58          88.04
    0.1292              -17.68          14.59          53.07           40.0          1.575          3.553          21.59          60.04          160.9          17.59          88.05
    0.1399              -17.68          14.59          53.08           40.0          1.568          3.552           21.6          60.01          160.9          17.61          88.06
    0.1507              -17.69           14.6          53.09           40.0          1.562          3.551          21.61          59.99          160.9          17.62          88.07
    0.1614              -17.69           14.6           53.1           40.0          1.554          3.549          21.62          59.96          160.8          17.64          88.08
    0.1722               -17.7          14.61          53.12          39.99          1.546          3.548          21.64          59.94          160.8          17.66          88.09
     0.183               -17.7          14.62          53.13          39.99          1.537          3.547          21.65           59.9          160.8          17.68           88.1
    0.1937              -17.71          14.63          53.15          39.99          1.528          3.545          21.67          59.87          160.8           17.7          88.12
    0.2045              -17.72          14.63          53.17          39.99          1.518          3.543          21.69          59.83          160.7          17.72          88.13
    0.2153              -17.73          14.64          53.18          39.99          1.506          3.541          21.71          59.79          160.7          17.75          88.15
     0.226              -17.74          14.65          53.21          39.98          1.494          3.539          21.73          59.75          160.6          17.78          88.17
    0.2368              -17.75          14.67          53.23          39.98           1.48          3.537          21.76           59.7          160.6          17.81          88.19
    0.2475              -17.76          14.68          53.26          39.98          1.464          3.534          21.79          59.64          160.5          17.84          88.21
    0.2583              -17.77          14.69          53.28          39.98          1.447          3.531          21.82          59.58          160.5          17.88          88.23
    0.2691              -17.78          14.71          53.32          39.97          1.428          3.528          21.85          59.51          160.4          17.92          88.26
    0.2798               -17.8          14.73          53.35          39.97          1.407          3.525          21.89          59.44          160.3          17.97          88.29
    0.2906              -17.82          14.75          53.39          39.96          1.383          3.521          21.93          59.35          160.3          18.03          88.33
    0.3014              -17.84          14.77          53.44          39.96          1.355          3.516          21.98          59.25          160.2          18.09          88.37
    0.3121              -17.86          14.79          53.49          39.95          1.324          3.511          22.04          59.14          160.1          18.16          88.41
    0.3229              -17.88          14.82          53.55          39.95          1.289          3.505           22.1          59.01          159.9          18.24          88.46
    0.3336              -17.91          14.86          53.62          39.94          1.249          3.498          22.18          58.87          159.8          18.33          88.52
    0.3444              -17.95           14.9           53.7          39.93          1.202           3.49          22.26           58.7          159.6          18.44          88.59
    0.3552              -17.99          14.94          53.79          39.92          1.148          3.481          22.36          58.51          159.4          18.56          88.66
    0.3659              -18.03           15.0          53.89          39.91          1.084          3.471          22.47          58.28          159.2          18.71          88.75
    0.3767              -18.09          15.06          54.02          39.89          1.009          3.458          22.61          58.01          159.0          18.88          88.86
    0.3875              -18.15          15.13          54.17          39.87         0.9204          3.443          22.77          57.69          158.7          19.08          88.99
    0.3982              -18.23          15.22          54.35          39.85         0.8138          3.425          22.96          57.31          158.3          19.32          89.14
     0.409              -18.32          15.33          54.57          39.83         0.6848          3.404          23.19          56.85          157.8          19.61          89.33
    0.4197              -18.43          15.46          54.83           39.8         0.5272          3.377          23.48          56.28          157.3          19.97          89.55
    0.4305              -18.57          15.62          55.16          39.76         0.3326          3.345          23.83          55.59          156.6          20.42          89.83
    0.4413              -18.75          15.82          55.56          39.72        0.09008          3.304          24.27          54.72          155.8          20.97          90.18
     0.452              -18.97          16.08          56.08          39.66        -0.2155          3.253          24.82          53.62          154.7          21.66          90.62
    0.4628              -19.25           16.4          56.73          39.58        -0.6039          3.188          25.52          52.23          153.4          22.54          91.18
    0.4736              -19.61          16.82          57.57          39.49         -1.101          3.105          26.42          50.45          151.7          23.68          91.89
    0.4843              -20.07          17.35          58.64          39.37         -1.739          2.998          27.57          48.16          149.5          25.13           92.8
    0.4951              -20.66          18.03          60.01          39.21         -2.554          2.862          29.04          45.25          146.7          26.98          93.97
    0.5058               -21.4          18.88          61.73          39.02         -3.579          2.691          30.89          41.57          143.1          29.31          95.44
    0.5166              -22.31          19.93          63.83          38.78         -4.828          2.482          33.14           37.1          138.8          32.15          97.23
    0.5274              -23.35          21.13          66.26           38.5         -6.275          2.239          35.75          31.91          133.8          35.44          99.31
    0.5381              -24.49          22.44           68.9           38.2         -7.842          1.977          38.58           26.3          128.4           39.0          101.6
    0.5489              -25.62          23.75          71.53           37.9          -9.41          1.715          41.41          20.68          123.0          42.57          103.8
    0.5597              -26.67          24.95          73.97          37.63         -10.86          1.473          44.02           15.5          118.0          45.86          105.9
    0.5704              -27.57          25.99          76.06          37.39         -12.11          1.264          46.27          11.02          113.7           48.7          107.7
